<svg width="152" height="27" viewBox="0 0 152 27" fill="none" xmlns="http://www.w3.org/2000/svg">
<g clip-path="url(#clip0_976_2325)">
<path d="M137.751 20.5742C139.094 20.5742 140.183 19.4901 140.183 18.1529C140.183 16.8157 139.094 15.7317 137.751 15.7317C136.408 15.7317 135.319 16.8157 135.319 18.1529C135.319 19.4901 136.408 20.5742 137.751 20.5742Z" fill="white"/>
<path d="M4.50112 26.5456H0V6.03795C0 2.69624 1.90745 0.455887 5.91281 0.455887C9.49946 0.455887 11.1016 2.27943 12.1687 5.20289L19.6837 21.5699C19.989 22.1777 20.4847 22.6336 21.3236 22.6336C22.2773 22.6336 22.8502 22.0634 22.8502 21.1907V0.911772H27.3905V21.3803C27.3905 24.7597 25.4453 27 21.4777 27C17.8911 27 16.2511 25.1765 15.1826 22.253L7.6676 5.88599C7.3245 5.12618 6.86653 4.78463 6.06546 4.78463C5.03614 4.78463 4.50112 5.35485 4.50112 6.26517V26.5441V26.5456Z" fill="white"/>
<path d="M97.6217 0.971107V16.1007C97.6217 19.153 96.1999 20.6133 93.8446 20.6133C91.4894 20.6133 90.0675 19.153 90.0675 16.1007V0.971107H84.8235V16.1007C84.8235 23.1792 88.3345 26.0535 92.9999 26.0549H94.6893C99.3562 26.0549 102.867 23.1792 102.867 16.1007V0.971107H97.6232H97.6217Z" fill="white"/>
<path d="M128.462 26.0897H123.503L132.545 3.30408C133.498 0.911771 135.253 0 137.962 0C140.67 0 142.387 0.911771 143.303 3.30408L152.002 26.0897H147.005L139.184 5.46918C138.956 4.86133 138.536 4.59504 137.925 4.59504C137.315 4.59504 136.896 4.86133 136.629 5.46918L128.465 26.0897H128.462Z" fill="white"/>
<path d="M53.7067 0.91177V5.39247H40.8125C38.104 5.39247 36.922 6.6458 36.922 8.61985C36.922 10.7082 38.2566 11.6576 40.8518 11.6576H45.5899V15.7215H40.7369C38.1433 15.7215 36.8072 16.7462 36.8072 18.836C36.8072 20.9259 38.0662 22.0634 40.6977 22.0634H53.7445V26.5441H40.6977C34.5944 26.5441 32.1141 23.544 32.1141 19.5568C32.1141 16.6333 33.4488 14.6578 35.8142 13.6708C33.411 12.6837 32.1897 10.7082 32.1897 7.89912C32.1897 3.7976 34.7456 0.91177 40.8111 0.91177H53.7053H53.7067Z" fill="white"/>
<path d="M51.6975 15.7317C52.8281 15.7317 53.7446 14.8193 53.7446 13.6939C53.7446 12.5685 52.8281 11.6562 51.6975 11.6562C50.567 11.6562 49.6505 12.5685 49.6505 13.6939C49.6505 14.8193 50.567 15.7317 51.6975 15.7317Z" fill="white"/>
<path d="M76.3983 13.7851C78.7638 12.7981 80.0984 10.8226 80.0984 7.89912C80.0984 3.91193 77.6181 0.91177 71.5149 0.91177H58.468V5.39247H71.5149C74.1478 5.39247 75.4054 6.60817 75.4054 8.61985C75.4054 10.6315 74.0707 11.7343 71.4756 11.7343H58.4666V26.5441H71.3986C77.464 26.5441 80.0199 23.6583 80.0199 19.5568C80.0199 16.7462 78.7986 14.7721 76.3954 13.7851H76.3983ZM71.4015 22.0634H62.6042V15.7968H71.3637C73.9573 15.7968 75.2934 16.7462 75.2934 18.8346C75.2934 20.8086 74.1114 22.062 71.4029 22.062L71.4015 22.0634Z" fill="white"/>
<path d="M118.78 21.6075H112.588C112.314 21.6075 112.092 21.3861 112.092 21.114V0.455887H107.591V24.0013C107.591 25.4066 108.277 26.0897 109.727 26.0897H118.78V21.609V21.6075Z" fill="white"/>
</g>
<defs>
<clipPath id="clip0_976_2325">
<rect width="152" height="27" fill="white"/>
</clipPath>
</defs>
</svg>
