<svg xmlns="http://www.w3.org/2000/svg" viewBox="0 0 439 439" width="40" height="40">
  <path fill="#764ABC" d="M219.5 0C98.4 0 0 98.4 0 219.5S98.4 439 219.5 439 439 340.6 439 219.5 340.6 0 219.5 0zm93.4 333.5c-19.2 0-34.7-15.5-34.7-34.7 0-12.8 7-24 17.4-29.9-11.7-21.6-27.2-41.4-47.8-57.2-8.8 8.3-20.4 13.4-33.2 13.4-26.5 0-48.1-21.6-48.1-48.1 0-26.5 21.6-48.1 48.1-48.1 22.9 0 42.1 16.1 47 37.6 30.9 21.2 54.8 47.4 70.8 77.4 10.5-6.5 22.8-10.2 36-10.2 34.7 0 62.8 28.1 62.8 62.8s-28.1 62.8-62.8 62.8z"></path>
</svg>
